# xmcd
#
# Track frame offsets:
#	150
#	19867
#	38395
#	54110
#	69019
#	82342
#	94101
#	104020
#	127230
#	144686
#	161786
#	180689
#	197054
#	211173
#	226781
#	241857
#	257632
#	267536
#
# Disc length: 3770 seconds
#
# Revision: 1
# Processed by: cddbd v1.5.2PL0 Copyright (c) Steve Scherf et al.
# Submitted via: FairStars CD Ripper 1.80
#
DISCID=fa0eb812
DTITLE=Various Artist - Orthophonic Joy
DYEAR=2015
DGENRE=Country
TTITLE0=Eddie Stubbs - Don't Deny Yourself the Sheer Joy of Orthophonic Music
TTITLE1=Doyle Lawson and Quicksilver - I'm Redeemed
TTITLE2=Eddie Stubbs - All They  Needed Now Was Talent
TTITLE3=Emmylou Harris - Bury Me Beneath The Willow
TTITLE4=Eddie Stubbs - Tonight He Is Playing The Old Old Tune at Police Headquarters
TTITLE5=Marty Stuart - Black Eyed Susie
TTITLE6=Eddie Stubbs - An Early Tradition of Scrapping For Rights and Royalties
TTITLE7=Dolly Parton - When They Ring Those Golden Bells
TTITLE8=Eddie Stubbs - I Wish I Had Some Rocks To Throw At Them
TTITLE9=Ashley Monroe - The Storms Are On The Ocean
TTITLE10=Eddie Stubbs - Any Song With a Story Will Go to the People's Hearts
TTITLE11=The Shotgun Rubies - I Am Resolved
TTITLE12=Eddie Stubbs - A Hoedown Social In a Mountain Cabin
TTITLE13=Steve Martin and The Steep Canyon Rangers - Sweet Heaven When I Die
TTITLE14=Eddie Stubbs - Daddy Never Knew When He Would Come Up With An Idea For a Song
TTITLE15=Vince Gill - The Soldier's Sweetheart
TTITLE16=Eddie Stubbs - Where The Blues Meets the Church
TTITLE17=Keb Mo' - To The Work
EXTD=
EXTT0=
EXTT1=
EXTT2=
EXTT3=
EXTT4=
EXTT5=
EXTT6=
EXTT7=
EXTT8=
EXTT9=
EXTT10=
EXTT11=
EXTT12=
EXTT13=
EXTT14=
EXTT15=
EXTT16=
EXTT17=
PLAYORDER=
